<?xml version="1.0" encoding="UTF-8" standalone="no"?>
<svg
   xmlns:dc="http://purl.org/dc/elements/1.1/"
   xmlns:cc="http://creativecommons.org/ns#"
   xmlns:rdf="http://www.w3.org/1999/02/22-rdf-syntax-ns#"
   xmlns:svg="http://www.w3.org/2000/svg"
   xmlns="http://www.w3.org/2000/svg"
   xmlns:sodipodi="http://sodipodi.sourceforge.net/DTD/sodipodi-0.dtd"
   xmlns:inkscape="http://www.inkscape.org/namespaces/inkscape"
   width="256"
   height="256"
   viewBox="0 0 67.733332 67.733335"
   version="1.1"
   id="svg8"
   inkscape:version="1.0 (b51213c273, 2020-08-10)"
   sodipodi:docname="avatar.svg">
  <defs
     id="defs2" />
  <sodipodi:namedview
     id="base"
     pagecolor="#ffffff"
     bordercolor="#666666"
     borderopacity="1.0"
     inkscape:pageopacity="0.0"
     inkscape:pageshadow="2"
     inkscape:zoom="1.4142136"
     inkscape:cx="249.96203"
     inkscape:cy="134.49273"
     inkscape:document-units="px"
     inkscape:current-layer="layer1"
     inkscape:document-rotation="0"
     showgrid="false"
     units="px"
     inkscape:window-width="1600"
     inkscape:window-height="879"
     inkscape:window-x="0"
     inkscape:window-y="0"
     inkscape:window-maximized="1" />
  <metadata
     id="metadata5">
    <rdf:RDF>
      <cc:Work
         rdf:about="">
        <dc:format>image/svg+xml</dc:format>
        <dc:type
           rdf:resource="http://purl.org/dc/dcmitype/StillImage" />
        <dc:title></dc:title>
      </cc:Work>
    </rdf:RDF>
  </metadata>
  <g
     inkscape:label="Layer 1"
     inkscape:groupmode="layer"
     id="layer1">
    <path
       id="rect931"
       style="fill:#ffffff;fill-opacity:1;stroke-width:0.33575;stroke-miterlimit:4;stroke-dasharray:none;stop-color:#000000"
       d="m 16.797226,6.5816995 c -5.659402,0 -10.2155267,4.5561245 -10.2155267,10.2155265 v 34.138881 c 0,5.659402 4.5561247,10.215527 10.2155267,10.215527 h 34.138882 c 5.659402,0 10.215527,-4.556125 10.215527,-10.215527 V 16.797226 c 0,-5.659402 -4.556125,-10.2155265 -10.215527,-10.2155265 z m 5.05589,17.9297135 a 4.1901023,4.1901023 0 0 1 4.189959,4.190627 4.1901023,4.1901023 0 0 1 -4.189959,4.189964 4.1901023,4.1901023 0 0 1 -4.189963,-4.189964 4.1901023,4.1901023 0 0 1 4.189963,-4.190627 z m 23.469107,0 a 4.1901023,4.1901023 0 0 1 4.190627,4.190627 4.1901023,4.1901023 0 0 1 -4.190627,4.189964 4.1901023,4.1901023 0 0 1 -4.189963,-4.189964 4.1901023,4.1901023 0 0 1 4.189963,-4.190627 z m -2.897059,16.14266 a 3.2349146,3.2349146 0 0 1 2.605093,1.260978 3.2349146,3.2349146 0 0 1 -0.588592,4.537131 c 0,0 -4.441598,3.446412 -10.853997,3.446412 -6.412398,0 -10.853997,-3.446412 -10.853997,-3.446412 a 3.2349146,3.2349146 0 0 1 -0.587924,-4.537131 3.2349146,3.2349146 0 0 1 2.538585,-1.260314 3.2349146,3.2349146 0 0 1 0.08846,6.68e-4 3.2349146,3.2349146 0 0 1 1.910091,0.671058 c 0,0 2.758323,2.10163 6.904792,2.10163 4.146468,0 6.905457,-2.10163 6.905457,-2.10163 a 3.2349146,3.2349146 0 0 1 1.932039,-0.67239 z" />
  </g>
</svg>
