<?xml version="1.0" encoding="UTF-8" standalone="no"?>
<svg
   xmlns:dc="http://purl.org/dc/elements/1.1/"
   xmlns:cc="http://creativecommons.org/ns#"
   xmlns:rdf="http://www.w3.org/1999/02/22-rdf-syntax-ns#"
   xmlns:svg="http://www.w3.org/2000/svg"
   xmlns="http://www.w3.org/2000/svg"
   xmlns:xlink="http://www.w3.org/1999/xlink"
   xmlns:sodipodi="http://sodipodi.sourceforge.net/DTD/sodipodi-0.dtd"
   xmlns:inkscape="http://www.inkscape.org/namespaces/inkscape"
   width="280"
   height="440"
   viewBox="0 0 74.083332 116.41667"
   version="1.1"
   id="svg8"
   sodipodi:docname="rss.svg"
   inkscape:version="1.0 (b51213c273, 2020-08-10)"
   inkscape:export-filename="/home/matt/Development/ps5-launcher/source-graphics/rss.png"
   inkscape:export-xdpi="96"
   inkscape:export-ydpi="96">
  <defs
     id="defs2">
    <linearGradient
       inkscape:collect="always"
       id="linearGradient922">
      <stop
         style="stop-color:#ff416c;stop-opacity:1"
         offset="0"
         id="stop918" />
      <stop
         style="stop-color:#ff4b2b;stop-opacity:1"
         offset="1"
         id="stop920" />
    </linearGradient>
    <linearGradient
       inkscape:collect="always"
       xlink:href="#linearGradient922"
       id="linearGradient924"
       x1="41.791435"
       y1="22.673822"
       x2="41.791435"
       y2="95.340195"
       gradientUnits="userSpaceOnUse" />
    <filter
       id="filter4284"
       inkscape:label="z-depth1"
       style="color-interpolation-filters:sRGB">
      <feFlood
         id="feFlood4286"
         result="flood"
         flood-color="rgb(0,0,0)"
         flood-opacity="0.12" />
      <feComposite
         id="feComposite4288"
         result="composite1"
         operator="in"
         in2="SourceGraphic"
         in="flood" />
      <feGaussianBlur
         id="feGaussianBlur4290"
         result="blur"
         stdDeviation="1.5" />
      <feOffset
         id="feOffset4292"
         result="offset"
         dy="1"
         dx="0" />
      <feComposite
         id="feComposite4294"
         result="fbSourceGraphic"
         operator="over"
         in2="offset"
         in="SourceGraphic" />
      <feColorMatrix
         id="feColorMatrix4332"
         values="0 0 0 -1 0 0 0 0 -1 0 0 0 0 -1 0 0 0 0 1 0"
         in="fbSourceGraphic"
         result="fbSourceGraphicAlpha" />
      <feFlood
         in="fbSourceGraphic"
         result="flood"
         flood-color="rgb(0,0,0)"
         flood-opacity="0.24"
         id="feFlood4334" />
      <feComposite
         result="composite1"
         operator="in"
         in="flood"
         in2="fbSourceGraphic"
         id="feComposite4336" />
      <feGaussianBlur
         result="blur"
         stdDeviation="1"
         id="feGaussianBlur4338" />
      <feOffset
         result="offset"
         dy="1"
         dx="0"
         id="feOffset4340" />
      <feComposite
         result="composite2"
         operator="over"
         in="fbSourceGraphic"
         in2="offset"
         id="feComposite4342" />
    </filter>
  </defs>
  <sodipodi:namedview
     id="base"
     pagecolor="#ffffff"
     bordercolor="#666666"
     borderopacity="1.0"
     inkscape:pageopacity="0.0"
     inkscape:pageshadow="2"
     inkscape:zoom="1"
     inkscape:cx="24.835157"
     inkscape:cy="126.72979"
     inkscape:document-units="px"
     inkscape:current-layer="layer1"
     inkscape:document-rotation="0"
     showgrid="false"
     units="px"
     inkscape:window-width="1600"
     inkscape:window-height="879"
     inkscape:window-x="0"
     inkscape:window-y="0"
     inkscape:window-maximized="1" />
  <metadata
     id="metadata5">
    <rdf:RDF>
      <cc:Work
         rdf:about="">
        <dc:format>image/svg+xml</dc:format>
        <dc:type
           rdf:resource="http://purl.org/dc/dcmitype/StillImage" />
        <dc:title></dc:title>
      </cc:Work>
    </rdf:RDF>
  </metadata>
  <g
     inkscape:label="Layer 1"
     inkscape:groupmode="layer"
     id="layer1">
    <rect
       style="fill:url(#linearGradient924);stroke-width:0.628618;stop-color:#000000;fill-opacity:1;stroke:#000000;stroke-opacity:0"
       id="rect886"
       width="74.083336"
       height="116.41666"
       x="-3.5527137e-15"
       y="-7.1054274e-15" />
    <path
       style="font-variation-settings:normal;opacity:1;vector-effect:none;fill:#fafafa;fill-opacity:1;stroke:none;stroke-width:0.264583;stroke-linecap:butt;stroke-linejoin:miter;stroke-miterlimit:4;stroke-dasharray:none;stroke-dashoffset:0;stroke-opacity:1;filter:url(#filter4284);stop-color:#000000;stop-opacity:1"
       d="m 38.596098,77.166815 c 0,-0.195855 -0.01544,-0.59397 -0.03432,-0.884701 -0.281874,-4.341865 -1.898261,-8.337388 -4.712971,-11.649919 -0.505953,-0.595441 -1.725658,-1.802804 -2.327186,-2.303644 -1.294028,-1.077423 -2.518119,-1.877689 -3.971881,-2.596664 -2.568994,-1.270529 -5.20777,-1.930324 -8.160873,-2.04053 l -0.603712,-0.02253 0.0084,-4.037995 0.0084,-4.037995 0.595312,0.0091 c 5.224127,0.08023 10.419365,1.715948 14.866277,4.680641 2.589607,1.726455 4.990786,3.997705 6.860071,6.488863 2.727133,3.634403 4.500139,7.77289 5.242557,12.23698 0.206931,1.244253 0.36579,3.0358 0.365843,4.125847 l 1.9e-5,0.388606 H 42.664067 38.596098 Z M 53.003696,76.660822 C 52.755967,67.243663 48.69784,58.444957 41.670321,52.088164 c -3.495198,-3.161607 -7.69898,-5.606207 -12.185812,-7.086343 -3.186945,-1.051322 -6.449512,-1.617859 -9.781316,-1.6985 l -0.884701,-0.02141 v -4.046165 -4.046165 l 0.388607,2.97e-4 c 0.569583,4.6e-4 1.907263,0.05814 2.703711,0.116575 7.051528,0.517406 13.808079,2.781475 19.774678,6.626348 3.40237,2.192483 6.589879,4.975509 9.241867,8.069109 5.735628,6.690727 9.221424,14.909344 10.024382,23.634923 0.105195,1.143109 0.134732,1.674776 0.156646,2.819466 l 0.02042,1.066601 h -4.051215 -4.051214 l -0.02268,-0.862091 z m -29.058901,0.807406 c -2.047163,-0.195024 -3.78388,-1.413963 -4.644625,-3.259895 -0.713429,-1.530003 -0.675954,-3.327407 0.101178,-4.852809 0.789131,-1.548957 2.182072,-2.61027 3.915061,-2.982979 0.474176,-0.10198 1.592467,-0.110748 2.100131,-0.01646 1.712186,0.317986 3.207669,1.426649 3.999408,2.964924 1.438491,2.794853 0.321239,6.165007 -2.51414,7.583818 -0.875953,0.438326 -2.007294,0.653879 -2.957013,0.563404 z"
       id="path940"
       transform="matrix(0.97833504,0,0,0.97833504,0.86566609,1.2209554)" />
  </g>
</svg>
