<?xml version="1.0" encoding="UTF-8" standalone="no"?>
<svg
   xmlns:dc="http://purl.org/dc/elements/1.1/"
   xmlns:cc="http://creativecommons.org/ns#"
   xmlns:rdf="http://www.w3.org/1999/02/22-rdf-syntax-ns#"
   xmlns:svg="http://www.w3.org/2000/svg"
   xmlns="http://www.w3.org/2000/svg"
   xmlns:sodipodi="http://sodipodi.sourceforge.net/DTD/sodipodi-0.dtd"
   xmlns:inkscape="http://www.inkscape.org/namespaces/inkscape"
   width="256"
   height="256"
   viewBox="0 0 67.733332 67.733335"
   version="1.1"
   id="svg8"
   sodipodi:docname="settings.svg"
   inkscape:export-filename="/home/matt/Development/ps5-launcher/app/src/main/res/drawable-nodpi/chat.png"
   inkscape:export-xdpi="96"
   inkscape:export-ydpi="96"
   inkscape:version="1.0 (b51213c273, 2020-08-10)">
  <defs
     id="defs2" />
  <sodipodi:namedview
     id="base"
     pagecolor="#ffffff"
     bordercolor="#666666"
     borderopacity="1.0"
     inkscape:pageopacity="0.0"
     inkscape:pageshadow="2"
     inkscape:zoom="1"
     inkscape:cx="125.83447"
     inkscape:cy="9.4397065"
     inkscape:document-units="px"
     inkscape:current-layer="layer1"
     inkscape:document-rotation="0"
     showgrid="false"
     units="px"
     inkscape:window-width="1600"
     inkscape:window-height="879"
     inkscape:window-x="0"
     inkscape:window-y="0"
     inkscape:window-maximized="1" />
  <metadata
     id="metadata5">
    <rdf:RDF>
      <cc:Work
         rdf:about="">
        <dc:format>image/svg+xml</dc:format>
        <dc:type
           rdf:resource="http://purl.org/dc/dcmitype/StillImage" />
        <dc:title></dc:title>
      </cc:Work>
    </rdf:RDF>
  </metadata>
  <g
     inkscape:label="Layer 1"
     inkscape:groupmode="layer"
     id="layer1">
    <circle
       style="fill:#ffffff;fill-opacity:0.4800415;stroke:none;stroke-width:2.64583334;stroke-linecap:round;stroke-miterlimit:4;stroke-dasharray:none;stroke-opacity:1;stop-color:#000000"
       id="path1155"
       cx="33.866665"
       cy="33.866665"
       r="26.684803" />
    <path
       d="m 47.155983,35.616241 c 0.07445,-0.558374 0.111675,-1.135362 0.111675,-1.749574 0,-0.595599 -0.03722,-1.191199 -0.130287,-1.749573 l 3.778334,-2.940773 c 0.335025,-0.260575 0.428088,-0.763112 0.22335,-1.135362 l -3.573597,-6.179346 c -0.22335,-0.409474 -0.688662,-0.539762 -1.098137,-0.409474 l -4.448384,1.786798 c -0.930625,-0.707274 -1.917086,-1.302874 -3.015223,-1.749573 l -0.67005,-4.727572 c -0.07445,-0.4467 -0.446699,-0.763112 -0.893399,-0.763112 H 30.29307 c -0.4467,0 -0.800337,0.316412 -0.874787,0.763112 l -0.67005,4.727572 c -1.098136,0.446699 -2.103211,1.060911 -3.015222,1.749573 l -4.448385,-1.786798 c -0.409475,-0.1489 -0.874787,0 -1.098137,0.409474 l -3.554985,6.179346 c -0.223349,0.390862 -0.148899,0.874787 0.22335,1.135362 l 3.778335,2.940773 c -0.09306,0.558374 -0.167512,1.172586 -0.167512,1.749573 0,0.576987 0.03722,1.1912 0.130287,1.749574 l -3.778335,2.940773 c -0.335024,0.260575 -0.428087,0.763112 -0.22335,1.135362 l 3.573598,6.179346 c 0.22335,0.409474 0.688662,0.539762 1.098137,0.409474 l 4.448384,-1.786799 c 0.930624,0.707275 1.917086,1.302875 3.015223,1.749574 l 0.67005,4.727572 c 0.09306,0.4467 0.446699,0.763112 0.893399,0.763112 h 7.147195 c 0.4467,0 0.818949,-0.316412 0.874787,-0.763112 l 0.670049,-4.727572 c 1.098137,-0.446699 2.103211,-1.042299 3.015223,-1.749574 l 4.448385,1.786799 c 0.409474,0.1489 0.874787,0 1.098136,-0.409474 l 3.573598,-6.179346 c 0.22335,-0.409475 0.130287,-0.874787 -0.22335,-1.135362 z m -13.289316,4.950922 c -3.685272,0 -6.700495,-3.015223 -6.700495,-6.700496 0,-3.685272 3.015223,-6.700495 6.700495,-6.700495 3.685273,0 6.700496,3.015223 6.700496,6.700495 0,3.685273 -3.015223,6.700496 -6.700496,6.700496 z"
       id="path1308"
       style="stroke-width:0.137138;font-variation-settings:normal;opacity:1;vector-effect:none;fill:#ffffff;fill-opacity:1;stroke-linecap:butt;stroke-linejoin:miter;stroke-miterlimit:4;stroke-dasharray:none;stroke-dashoffset:0;stroke-opacity:1;stop-color:#000000;stop-opacity:1" />
  </g>
</svg>
